#N canvas 7 270 1647 689 12;
#X obj 357 49 receive fromGUI;
#X obj 357 78 list trim;
#X obj 1234 325 phasor~;
#X obj 1278 423 dac~;
#X msg 22 411 261.626;
#X msg 69 375 271.346;
#X msg 130 376 281.428;
#X msg 196 411 291.885;
#X msg 245 377 302.73;
#X obj 1279 374 *~;
#X floatatom 538 578 5 0 0 0 - - -;
#X obj 1296 325 vline~;
#X obj 538 618 send freq;
#X obj 1330 41 receive freq;
#X obj 22 323 sel 1;
#X obj 69 324 sel 1;
#X obj 130 325 sel 1;
#X obj 196 325 sel 1;
#X obj 245 324 sel 1;
#X obj 1234 224 t f b;
#X obj 302 325 sel 1;
#X obj 368 325 sel 1;
#X obj 417 324 sel 1;
#X msg 302 376 313.978;
#X msg 368 411 325.642;
#X msg 417 381 337.743;
#X obj 491 324 sel 1;
#X obj 538 325 sel 1;
#X obj 599 326 sel 1;
#X obj 665 326 sel 1;
#X obj 714 325 sel 1;
#X obj 778 326 sel 1;
#X obj 844 326 sel 1;
#X obj 893 325 sel 1;
#X msg 491 412 350.292;
#X msg 538 376 363.307;
#X msg 599 377 376.805;
#X msg 665 412 390.806;
#X msg 714 378 405.326;
#X msg 778 377 420.386;
#X msg 844 412 436.005;
#X msg 893 382 452.205;
#X obj 966 325 sel 1;
#X obj 1028 325 sel 1;
#X obj 1091 325 sel 1;
#X obj 1153 325 sel 1;
#X msg 966 382 469.007;
#X msg 1028 410 486.433;
#X msg 1091 382 504.506;
#X msg 1153 410 523.251;
#X obj 697 619 send stop;
#X obj 1547 178 receive stop;
#X msg 1547 258 0 100;
#X msg 1296 258 0.5 100 0 \, 0.2 100 100 \, 0 300 300;
#X obj 357 110 route /myButtonC1 /myButtonCs /myButtonDb /myButtonD
/myButtonDs /myButtonEb /myButtonE /myButtonEs /myButtonF /myButtonFs
/myButtonGb /myButtonG /myButtonGs /myButtonAb /myButtonA /myButtonAs
/myButtonBb /myButtonB /myButtonBs /myButtonC2 /myButtonDn /myButtonUp
;
#X msg 1234 80 1;
#X obj 1234 181 *;
#X msg 1102 114 0.5;
#X msg 1174 81 2;
#X obj 1330 78 t b f;
#X obj 1102 81 sel 1;
#X obj 1174 42 sel 1;
#X obj 1234 142 f;
#X obj 1234 41 loadbang;
#X obj 1174 143 *;
#X floatatom 1234 259 5 0 0 0 - - -;
#X connect 0 0 1 0;
#X connect 1 0 54 0;
#X connect 2 0 9 0;
#X connect 4 0 10 0;
#X connect 5 0 10 0;
#X connect 6 0 10 0;
#X connect 7 0 10 0;
#X connect 8 0 10 0;
#X connect 9 0 3 0;
#X connect 9 0 3 1;
#X connect 10 0 12 0;
#X connect 11 0 9 1;
#X connect 13 0 59 0;
#X connect 14 0 4 0;
#X connect 14 1 50 0;
#X connect 15 0 5 0;
#X connect 15 1 50 0;
#X connect 16 0 6 0;
#X connect 16 1 50 0;
#X connect 17 0 7 0;
#X connect 17 1 50 0;
#X connect 18 0 8 0;
#X connect 18 1 50 0;
#X connect 19 0 65 0;
#X connect 19 1 53 0;
#X connect 20 0 23 0;
#X connect 20 1 50 0;
#X connect 21 0 24 0;
#X connect 21 1 50 0;
#X connect 22 0 25 0;
#X connect 22 1 50 0;
#X connect 23 0 10 0;
#X connect 24 0 10 0;
#X connect 25 0 10 0;
#X connect 26 0 34 0;
#X connect 26 1 50 0;
#X connect 27 0 35 0;
#X connect 27 1 50 0;
#X connect 28 0 36 0;
#X connect 28 1 50 0;
#X connect 29 0 37 0;
#X connect 29 1 50 0;
#X connect 30 0 38 0;
#X connect 30 1 50 0;
#X connect 31 0 39 0;
#X connect 31 1 50 0;
#X connect 32 0 40 0;
#X connect 32 1 50 0;
#X connect 33 0 41 0;
#X connect 33 1 50 0;
#X connect 34 0 10 0;
#X connect 35 0 10 0;
#X connect 36 0 10 0;
#X connect 37 0 10 0;
#X connect 38 0 10 0;
#X connect 39 0 10 0;
#X connect 40 0 10 0;
#X connect 41 0 10 0;
#X connect 42 0 46 0;
#X connect 42 1 50 0;
#X connect 43 0 47 0;
#X connect 43 1 50 0;
#X connect 44 0 48 0;
#X connect 44 1 50 0;
#X connect 45 0 49 0;
#X connect 45 1 50 0;
#X connect 46 0 10 0;
#X connect 47 0 10 0;
#X connect 48 0 10 0;
#X connect 49 0 10 0;
#X connect 51 0 52 0;
#X connect 52 0 11 0;
#X connect 53 0 11 0;
#X connect 54 0 14 0;
#X connect 54 1 15 0;
#X connect 54 2 16 0;
#X connect 54 3 17 0;
#X connect 54 4 18 0;
#X connect 54 5 20 0;
#X connect 54 6 21 0;
#X connect 54 7 22 0;
#X connect 54 8 26 0;
#X connect 54 9 27 0;
#X connect 54 10 28 0;
#X connect 54 11 29 0;
#X connect 54 12 30 0;
#X connect 54 13 31 0;
#X connect 54 14 32 0;
#X connect 54 15 33 0;
#X connect 54 16 42 0;
#X connect 54 17 43 0;
#X connect 54 18 44 0;
#X connect 54 19 45 0;
#X connect 54 20 60 0;
#X connect 54 21 61 0;
#X connect 55 0 62 0;
#X connect 56 0 19 0;
#X connect 57 0 64 0;
#X connect 58 0 64 0;
#X connect 59 0 62 0;
#X connect 59 1 56 1;
#X connect 60 0 57 0;
#X connect 61 0 58 0;
#X connect 62 0 56 0;
#X connect 62 0 64 1;
#X connect 63 0 55 0;
#X connect 64 0 62 0;
#X connect 65 0 2 0;
